<?xml version="1.0" encoding="utf-8"?>
<!-- Generator: Adobe Illustrator 23.0.3, SVG Export Plug-In . SVG Version: 6.00 Build 0)  -->
<svg version="1.1" id="Layer_1" xmlns="http://www.w3.org/2000/svg" xmlns:xlink="http://www.w3.org/1999/xlink" x="0px" y="0px"
	 viewBox="0 0 283 62" style="enable-background:new 0 0 283 62;" xml:space="preserve">
<style type="text/css">
	.st0{fill-rule:evenodd;clip-rule:evenodd;fill:#E5F2FF;stroke:#017FFF;}
	.st1{fill:none;stroke:#017FFF;stroke-linecap:square;stroke-dasharray:2,4;}
</style>
<g>
	<g>
		<g>
			<g>
				<g>
					<g>
						<g>
							<path class="st0" d="M274,1.5c2.1,0,3.9,0.8,5.3,2.2c1.4,1.4,2.2,3.2,2.2,5.3l0,0v44c0,2.1-0.8,3.9-2.2,5.3
								c-1.4,1.4-3.2,2.2-5.3,2.2l0,0H66c-0.1-1-0.6-2-1.3-2.7c-0.8-0.8-1.9-1.3-3.2-1.3c-1.2,0-2.4,0.5-3.2,1.3
								c-0.7,0.7-1.2,1.6-1.3,2.7l0,0H9c-2.1,0-3.9-0.8-5.3-2.2c-1.4-1.4-2.2-3.2-2.2-5.3l0,0V9c0-2.1,0.8-3.9,2.2-5.3
								C5.1,2.3,6.9,1.5,9,1.5h48c0.1,1,0.6,2,1.3,2.7c0.8,0.8,1.9,1.3,3.2,1.3c1.2,0,2.4-0.5,3.2-1.3c0.7-0.7,1.2-1.6,1.3-2.7l0,0
								L274,1.5z"/>
							<g>
								<path class="st1" d="M61.5,9v48"/>
							</g>
						</g>
					</g>
				</g>
			</g>
		</g>
	</g>
</g>
</svg>
