<svg xmlns="http://www.w3.org/2000/svg" xmlns:xlink="http://www.w3.org/1999/xlink" width="24" height="24" viewBox="0 0 24 24">
    <defs>
        <path id="a" d="M3.235 2h6.42c.681 0 1.234.553 1.234 1.235v6.42c0 .681-.553 1.234-1.235 1.234h-6.42A1.235 1.235 0 0 1 2 9.654v-6.42C2 2.554 2.553 2 3.235 2zM3.6 3.6v5.689h5.689V3.6H3.6zM14.346 2h6.42C21.446 2 22 2.553 22 3.235v6.42c0 .681-.553 1.234-1.235 1.234h-6.42a1.235 1.235 0 0 1-1.234-1.235v-6.42c0-.681.553-1.234 1.235-1.234zm.365 1.6v5.689H20.4V3.6h-5.689zM9.654 22h-6.42A1.235 1.235 0 0 1 2 20.765v-6.42c0-.681.553-1.234 1.235-1.234h6.42c.681 0 1.234.553 1.234 1.235v6.42c0 .681-.553 1.234-1.235 1.234zM3.6 14.711V20.4h5.689v-5.689H3.6zm18.4-.365v6.42c0 .681-.553 1.234-1.235 1.234h-6.42a1.235 1.235 0 0 1-1.234-1.235v-6.42c0-.681.553-1.234 1.235-1.234h6.42c.681 0 1.234.553 1.234 1.235zm-7.289.365V20.4H20.4v-5.689h-5.689z"/>
    </defs>
    <g fill="none" fill-rule="evenodd">
        <mask id="b" fill="#fff">
            <use xlink:href="#a"/>
        </mask>
        <use fill="#fff" xlink:href="#a"/>
        <g fill="#fff" mask="url(#b)">
            <path d="M0 0h24v24H0z"/>
        </g>
    </g>
</svg>