<?xml version="1.0" encoding="utf-8"?>
<!-- Generator: Adobe Illustrator 23.0.3, SVG Export Plug-In . SVG Version: 6.00 Build 0)  -->
<svg version="1.1" id="Capa_1" xmlns="http://www.w3.org/2000/svg" xmlns:xlink="http://www.w3.org/1999/xlink" x="0px" y="0px"
	 viewBox="0 0 100 100" style="enable-background:new 0 0 100 100;" xml:space="preserve">
<style type="text/css">
	.st0{fill:#2196F3;}
	.st1{fill:#FAFAFA;}
</style>
<path class="st0" d="M50,0C23-0.5,0.6,20.9,0,47.9c0.1,13.8,6.2,26.8,16.7,35.7v14.3c0,1.2,0.9,2.1,2.1,2.1c0.4,0,0.8-0.1,1.1-0.3
	l11.6-7.3c5.9,2.3,12.2,3.4,18.5,3.4c27,0.5,49.4-20.9,50-47.9C99.4,20.9,77-0.5,50,0z"/>
<path class="st1" d="M82.9,34.2c-0.6-0.8-1.8-1.1-2.7-0.6L58.6,45.4L45.1,33.8c-0.8-0.7-2.1-0.7-2.8,0.1l-25,25
	c-0.8,0.8-0.8,2.1,0,2.9c0.7,0.6,1.7,0.8,2.5,0.4l21.7-11.8L54.9,62c0.8,0.7,2.1,0.7,2.8-0.1l25-25C83.5,36.2,83.5,35,82.9,34.2z"/>
</svg>
